<svg width="643" height="18" viewBox="0 0 643 18" fill="none" xmlns="http://www.w3.org/2000/svg">
<path d="M13.3334 6C13.0873 6 12.8565 6.06706 12.6582 6.18391C12.5837 5.51856 12.0179 5 11.3334 5C11.0078 5 10.7087 5.11784 10.4763 5.31413C10.2429 4.92644 9.81806 4.66666 9.33337 4.66666C9.09087 4.66666 8.863 4.73175 8.66672 4.84569V1.33334C8.66669 0.597969 8.06872 0 7.33337 0C6.59803 0 6.00003 0.597969 6.00003 1.33334V10.2546C6.00003 10.4225 5.88934 10.5088 5.84181 10.5381C5.79428 10.5674 5.66634 10.6276 5.51759 10.5527L3.37697 9.48244C3.18197 9.38478 2.96356 9.33334 2.74547 9.33334C1.96681 9.33334 1.33337 9.96681 1.33337 10.7455V11C1.33337 11.0924 1.37178 11.1807 1.43916 11.2438L5.2865 14.8346C6.09181 15.5859 7.14197 16 8.24319 16H10.3333C12.7227 16 14.6667 14.056 14.6667 11.6667V7.33334C14.6667 6.59797 14.0687 6 13.3334 6ZM14 11.6667C14 13.6885 12.3552 15.3333 10.3334 15.3333H8.24322C7.31156 15.3333 6.4229 14.9831 5.74159 14.347L2.00003 10.8552V10.7455C2.00003 10.3343 2.33434 10 2.74547 10C2.86037 10 2.97594 10.0273 3.07881 10.0788L5.21944 11.1491C5.53162 11.3057 5.89553 11.2884 6.19241 11.1055C6.48928 10.9219 6.66669 10.6038 6.66669 10.2546V1.33334C6.66669 0.965844 6.96584 0.666687 7.33334 0.666687C7.70084 0.666687 8 0.965844 8 1.33334V6.33334C8 6.51759 8.14909 6.66669 8.33334 6.66669C8.51759 6.66669 8.66669 6.51759 8.66669 6.33334V6C8.66669 5.6325 8.96584 5.33334 9.33334 5.33334C9.70084 5.33334 10 5.6325 10 6V6.33334C10 6.334 10 6.33466 10 6.33531V6.33563C10.0013 6.51856 10.1501 6.66669 10.3333 6.66669C10.5176 6.66669 10.6667 6.51759 10.6667 6.33334V6.32812C10.6693 5.96322 10.9681 5.66666 11.3333 5.66666C11.7008 5.66666 12 5.96581 12 6.33331V7.33331C12 7.51756 12.1491 7.66666 12.3333 7.66666C12.5176 7.66666 12.6667 7.51756 12.6667 7.33331C12.6667 6.96581 12.9658 6.66666 13.3333 6.66666C13.7008 6.66666 14 6.96581 14 7.33334V11.6667Z" fill="black"/>
<path d="M640.333 8C640.087 8 639.856 8.06706 639.658 8.18391C639.584 7.51856 639.018 7 638.333 7C638.008 7 637.709 7.11784 637.476 7.31413C637.243 6.92644 636.818 6.66666 636.333 6.66666C636.091 6.66666 635.863 6.73175 635.667 6.84569V3.33334C635.667 2.59797 635.069 2 634.333 2C633.598 2 633 2.59797 633 3.33334V12.2546C633 12.4225 632.889 12.5088 632.842 12.5381C632.794 12.5674 632.666 12.6276 632.518 12.5527L630.377 11.4824C630.182 11.3848 629.964 11.3333 629.745 11.3333C628.967 11.3333 628.333 11.9668 628.333 12.7455V13C628.333 13.0924 628.372 13.1807 628.439 13.2438L632.286 16.8346C633.092 17.5859 634.142 18 635.243 18H637.333C639.723 18 641.667 16.056 641.667 13.6667V9.33334C641.667 8.59797 641.069 8 640.333 8ZM641 13.6667C641 15.6885 639.355 17.3333 637.333 17.3333H635.243C634.312 17.3333 633.423 16.9831 632.742 16.347L629 12.8552V12.7455C629 12.3343 629.334 12 629.745 12C629.86 12 629.976 12.0273 630.079 12.0788L632.219 13.1491C632.532 13.3057 632.896 13.2884 633.192 13.1055C633.489 12.9219 633.667 12.6038 633.667 12.2546V3.33334C633.667 2.96584 633.966 2.66669 634.333 2.66669C634.701 2.66669 635 2.96584 635 3.33334V8.33334C635 8.51759 635.149 8.66669 635.333 8.66669C635.518 8.66669 635.667 8.51759 635.667 8.33334V8C635.667 7.6325 635.966 7.33334 636.333 7.33334C636.701 7.33334 637 7.6325 637 8V8.33334C637 8.334 637 8.33466 637 8.33531V8.33563C637.001 8.51856 637.15 8.66669 637.333 8.66669C637.518 8.66669 637.667 8.51759 637.667 8.33334V8.32812C637.669 7.96322 637.968 7.66666 638.333 7.66666C638.701 7.66666 639 7.96581 639 8.33331V9.33331C639 9.51756 639.149 9.66666 639.333 9.66666C639.518 9.66666 639.667 9.51756 639.667 9.33331C639.667 8.96581 639.966 8.66666 640.333 8.66666C640.701 8.66666 641 8.96581 641 9.33334V13.6667Z" fill="black"/>
</svg>
